<svg width="743" height="701" viewBox="0 0 743 701" fill="none" xmlns="http://www.w3.org/2000/svg">
<path d="M227.5 225.5C218.3 231.9 208 253.5 204 263.5C194.667 282.167 181.6 336.6 204 405C232 490.5 292.5 529.5 336.5 538.5C380.5 547.5 444 518 493.5 480C543 442 556 338.5 549.5 277C543 215.5 448.5 174 430.5 167C412.5 160 316.5 174 307.5 174C298.5 174 239 217.5 227.5 225.5Z" fill="#2C558D" stroke="black"/>
<path d="M311.483 158.434C310.226 158.492 304.583 160.792 288.844 169.218C284.312 171.644 282.589 173.793 276.903 179.147C263.516 191.751 250.061 200.253 243.281 204.841C228.92 214.56 223.811 220.643 215.804 225.475C209.404 229.337 206.903 235.431 205.218 243.191C203.978 248.902 197.005 256.523 191.464 264.104C189.965 266.721 188.973 269.078 187.911 272.867C187.251 275.473 186.344 279.467 185.41 283.583" stroke="#2C558D" stroke-width="2" stroke-linecap="round"/>
<path d="M185.41 283.583C185.404 286.808 180.541 311.969 173.765 336.296C170.045 349.651 170.195 367.01 172.573 386.753C173.872 397.532 180.298 408.972 185.898 420.117C196.801 441.817 205.745 457.472 210.406 467.1C214.128 474.788 222.936 483.472 237.545 496.778C256.354 513.91 270.085 523.549 275.035 527.133C282.817 532.768 293.081 537.711 300.727 542.182C304.648 544.475 321.438 545.231 348.11 546.8C365.786 547.84 376.122 549.798 390.993 547.28C402.162 545.388 420.257 540.052 431.016 536.963C441.774 533.875 444.536 532.635 453.597 529.084C477.877 519.57 494.733 512.913 497.784 510.204C508.463 500.718 515.635 490.891 523.793 480.233C528.417 474.191 535.34 462.292 543.8 445.013C552.26 427.734 561.575 405.103 566.694 391.759C571.812 378.416 572.451 375.046 572.867 363.643C573.988 332.921 573.437 311.658 573.001 308.33C570.578 292.91 566.127 273.858 564.096 269.335C563.2 267.449 562.576 266.393 561.934 265.306" stroke="#2C558D" stroke-width="2" stroke-linecap="round"/>
<path d="M561.934 265.306C561.385 263.495 552.508 247.918 535.286 222.91C526.236 209.769 514.903 196.888 507.701 188.711C497.736 177.397 493.03 174.335 484.415 171.507C476.928 169.05 462.891 165.232 441.541 162.817C420.191 160.402 391.895 159.689 371.278 159.519C338.577 159.25 324.313 160.485 320.995 161.213C315.791 162.356 310.441 163.438 301.932 165.356C290.856 168.439 269.701 173.824 262.184 177.035C261.003 177.704 260.087 178.351 258.818 180.85" stroke="#2C558D" stroke-width="2" stroke-linecap="round"/>
<path d="M205.47 260.588C204.993 261.889 203.371 266.389 199.321 277.569C197.78 281.822 195.641 288.117 193.533 296.082C192.318 300.676 191.301 315.076 189.48 337.079C188.304 351.291 186.845 360.85 190.743 380.389C193.795 395.684 202.589 421.083 207 434.963C212.744 453.04 220.19 459.233 235.479 473.508C247.732 487.006 257.052 496.934 262.421 501.097C265.565 503.463 269.561 506.345 274.304 510.018" stroke="#2C558D" stroke-width="2" stroke-linecap="round"/>
<path d="M274.304 510.018C277.165 510.089 288.525 512.321 312.491 525.155C321.354 529.901 325.317 534.964 336.717 537.701C341.536 538.857 348.972 538.062 360.771 536.973C372.57 535.884 388.635 533.674 402.533 530.724C427.954 525.33 443.45 518.107 454.187 511.442C470.048 501.596 479.757 493.022 482.368 490.095C485.545 486.534 491.981 479.798 503.453 468.116C519.034 452.251 526.876 438.585 532.664 421.36C537.625 406.597 545.717 379.291 550.076 362.328C554.569 339.491 554.168 329.996 552.608 324.685C551.586 322.818 550.096 322.632 548.56 322.44" stroke="#2C558D" stroke-width="2" stroke-linecap="round"/>
<path d="M548.56 322.44C548.56 322.336 548.56 309.962 548.15 289.563C547.916 277.956 542.406 265.872 533.251 247.398C528.227 237.258 520.564 226.545 511.715 216.819C502.866 207.094 492.586 198.932 482.504 192.393C463.521 180.082 445.831 174.106 434.211 170.552C429.768 169.193 428.186 169.044 413.771 168.767C399.357 168.489 372.136 168.167 352.327 169.301C332.518 170.435 320.947 173.036 312.619 175.296C299.406 178.882 287.321 185.57 271.517 195.149C240.799 213.768 233.459 219.027 227.35 225.332C219.542 235.909 214.374 244.579 206.122 256.007C204.417 258.306 203.378 259.751 202.241 262.91" stroke="#2C558D" stroke-width="2" stroke-linecap="round"/>
<path d="M143.767 172.544C143.767 172.376 146.686 168.658 156.825 157.948C163.776 150.605 175.479 140.454 185.045 132.351C194.611 124.248 201.964 118.773 212.214 112.243C222.465 105.712 235.39 98.2915 244.618 93.6239C258.636 86.533 270.697 82.9417 290.963 75.8529C304.707 71.0454 325.886 64.9982 340.491 61.1845C355.095 57.3709 362.588 56.2852 371.827 55.6854C391.794 54.3892 409.88 56.724 422.541 60.1298C428.249 61.6653 432.427 63.0816 442.67 65.7794C469.014 72.7179 487.847 77.6165 492.098 79.5298C496.235 81.3918 501.663 83.9027 509.995 89.802C522.834 98.8912 538.113 111.435 552.395 120.107C565.586 128.116 574.064 141.096 577.713 146.972C578.424 148.187 579.112 149.255 579.081 149.073C579.049 148.891 578.277 147.427 577.482 145.918" stroke="#2C558D" stroke-width="2" stroke-linecap="round"/>
<path d="M577.482 145.918C578.93 147.431 583.761 152.591 594.28 167.41C603.068 179.791 618.221 202.487 628.775 219.388C639.329 236.29 644.661 246.823 648.901 257.106C653.14 267.39 656.127 277.104 659.327 291.015C662.528 304.925 665.851 322.737 667.666 339.077C669.481 355.418 669.686 369.747 669.042 381.902C667.245 415.839 661.775 422.255 656.241 428.21C654.23 429.973 651.666 431.943 649.488 433.004C647.31 434.064 645.597 434.155 643.832 434.249" stroke="#2C558D" stroke-width="2" stroke-linecap="round"/>
<path d="M652.497 433.369C652.367 441.05 648.495 468.063 640.612 486.37C637.668 493.206 628.132 499.013 605.166 522.875C585.492 543.318 573.359 557.833 570.513 561.479C565.882 567.409 561.574 570.771 553.276 577.167C540.432 585.141 528.801 592.714 522.789 597.519C520.065 599.808 518.004 601.794 513.619 605.01" stroke="#2C558D" stroke-width="2" stroke-linecap="round"/>
<path d="M513.619 605.01C513.374 605.01 508.465 605.116 500.441 605.465C495.609 605.675 477.705 611.312 448.94 620.901C427.633 628.003 417.831 636.537 413.711 639.435C404.296 646.056 384.276 652.309 363.031 654.72C355.221 655.606 344.715 654.77 332.488 653.351C320.26 651.931 306.582 649.276 286.699 642.098C266.815 634.921 241.142 623.302 226.309 616.094C202.103 600.92 193.444 589.974 187.391 580.688C184.221 576.259 180.849 572.403 175.922 566.561" stroke="#2C558D" stroke-width="2" stroke-linecap="round"/>
<path d="M175.922 566.561C175.922 566.257 175.432 564.435 167.156 550.058C159.721 537.14 144.306 513.64 135.594 500.293C125.272 484.481 119.995 479.633 114.252 474.076C108.742 468.744 103.823 459.958 98.7014 450.057C94.6586 442.241 91.8663 427.592 88.2138 404.345C86.6662 391.786 85.7395 377.68 84.7019 361.634C83.6644 345.588 82.544 328.031 81.5649 310.48" stroke="#2C558D" stroke-width="2" stroke-linecap="round"/>
<path d="M81.5649 310.48C81.5649 310.308 81.5649 310.136 81.6191 300.016C81.6733 289.895 81.7818 269.831 84.3545 251.056C86.9272 232.281 91.9609 215.403 95.0521 205.722C98.8087 193.956 103.563 187.951 110.19 180.525C113.285 177.057 116.379 174.701 136.303 158.305C156.226 141.908 193.025 111.671 214.028 95.0111C238.606 75.515 250.403 71.8145 262.322 68.4189C269.482 66.3789 274.956 66.4896 285.513 66.3237C305.661 65.9366 319.977 65.4317 323.271 65.0015C325.076 64.8199 327.152 64.7129 326.996 62.3861" stroke="#2C558D" stroke-width="2" stroke-linecap="round"/>
<path d="M201.098 554.514C201.098 554.43 202.046 552.498 207.379 544.212C219.555 526.963 228.564 514.855 231.229 512.906C232.914 511.884 235.275 510.797 237.97 509.396" stroke="#2C558D" stroke-width="2" stroke-linecap="round"/>
<path d="M211.734 508.104C209.126 508.802 196.498 513.545 190.247 517.222C186.29 519.55 185.755 525.95 181.771 528.776C180.933 529.37 179.677 528.072 179.144 525.735C174.882 507.044 189.15 486.937 190.791 483.288C191.116 482.565 189.222 482.046 187.992 482.008C182.696 481.844 175.273 488.857 169.314 494.029C166.471 497.923 163.769 501.086 161.592 502.673C160.536 503.419 159.58 504.044 156.716 506.352" stroke="#2C558D" stroke-width="2" stroke-linecap="round"/>
<path d="M141.156 464.345C139.903 465.571 135.72 471.376 134.444 476.429C134.175 477.494 135.184 478.524 136.156 479.211C141.917 483.28 152.734 480.009 157.554 477.17C163.629 473.592 158.72 460.041 156.549 454.512C155.675 452.285 156.194 449.706 157.442 447.62C160.985 441.698 171.759 446.997 173.982 448.449C179.58 452.105 179.674 461.473 179.957 467.691C180.023 469.137 179.611 470.237 178.977 471.041C178.344 471.846 177.328 472.32 176.125 472.547C174.922 472.774 173.563 472.739 172.448 472.254C171.333 471.769 170.503 470.836 169.648 469.873" stroke="#2C558D" stroke-width="2" stroke-linecap="round"/>
<path d="M116.015 417.922C116.015 418.168 116.067 426.082 116.277 438.781C116.696 445.49 117.203 448.504 117.845 450.785C118.251 451.905 118.817 452.948 119.686 454.19" stroke="#2C558D" stroke-width="2" stroke-linecap="round"/>
<path d="M122.354 434.735C122.354 434.828 125.771 434.922 135.129 434.026C141.069 433.084 149.427 431.153 154.702 429.711C159.977 428.27 161.914 427.376 166.354 425.181" stroke="#2C558D" stroke-width="2" stroke-linecap="round"/>
<path d="M109.755 397.136C115.874 397.28 131.165 396.824 140.151 394.704C142.68 394.185 145.097 393.845 146.953 393.406C148.809 392.968 150.03 392.44 151.289 391.896" stroke="#2C558D" stroke-width="2" stroke-linecap="round"/>
<path d="M110.373 373.063C110.373 373.022 110.373 372.98 110.373 368.388C110.373 363.796 110.373 354.655 110.487 344.904" stroke="#2C558D" stroke-width="2" stroke-linecap="round"/>
<path d="M108.822 356.303C108.868 356.303 108.914 356.303 115.426 356.239C121.937 356.176 134.911 356.048 142.164 356.328C149.417 356.608 150.555 357.299 151.784 358.484" stroke="#2C558D" stroke-width="2" stroke-linecap="round"/>
<path d="M106.986 318.834C116.068 318.654 135.814 318.3 138.218 317.48C142.781 315.923 143.023 309.154 143.181 299.339C143.299 291.993 138.122 286.176 133.255 282.92C129.181 281.204 124.091 280.232 119.185 280.689C116.971 281.202 115.315 282.286 111.731 284.27" stroke="#2C558D" stroke-width="2" stroke-linecap="round"/>
<path d="M124.842 268.206C124.842 263.46 126.311 250.952 129.678 243.833C130.654 242.071 131.766 240.616 132.878 239.598C133.99 238.58 135.068 238.043 137.533 237.046" stroke="#2C558D" stroke-width="2" stroke-linecap="round"/>
<path d="M130.344 249.246C131.333 249.478 142.641 254.034 156.547 262.121C159.325 263.871 161.544 265.262 163.233 266.289C164.921 267.316 166.011 267.938 168.466 268.736" stroke="#2C558D" stroke-width="2" stroke-linecap="round"/>
<path d="M153.037 204.593C154.242 203.019 162.718 196.155 174.401 187.999C176.162 186.276 176.175 185.101 175.751 183.938C175.326 182.774 174.463 181.658 173.574 180.508" stroke="#2C558D" stroke-width="2" stroke-linecap="round"/>
<path d="M167.502 191.841C167.502 191.968 167.502 192.096 167.833 193.013C168.164 193.931 168.826 195.636 172.023 201.155C175.22 206.675 180.932 215.959 187.824 224.447" stroke="#2C558D" stroke-width="2" stroke-linecap="round"/>
<path d="M185.883 163.125C185.883 163.042 186.813 161.515 188.788 158.792C189.834 157.551 190.967 156.598 192.304 155.698C193.641 154.797 195.147 153.978 198.36 152.945" stroke="#2C558D" stroke-width="2" stroke-linecap="round"/>
<path d="M187.701 158.495C188.236 161.041 203.033 186.232 215.423 201.733C218.226 197.798 220.248 192.356 230.14 177.585C232.335 174.507 233.117 173.711 233.997 172.829" stroke="#2C558D" stroke-width="2" stroke-linecap="round"/>
<path d="M200.809 177.871C202.273 178.03 207.345 177.201 212.877 173.254C213.979 172.11 214.459 171.035 214.778 169.901C215.097 168.766 215.24 167.604 215.51 165.548" stroke="#2C558D" stroke-width="2" stroke-linecap="round"/>
<path d="M225.275 129.863C225.365 131.506 226.252 137.222 235.328 155.315C238.671 161.059 241.184 163.904 243.81 166.02C245.072 166.999 246.189 167.784 247.341 168.593" stroke="#2C558D" stroke-width="2" stroke-linecap="round"/>
<path d="M252.265 111.205C251.944 113.195 249.537 120.958 245.497 130.56C240.639 142.108 238.183 147.82 234.655 150.441C233.545 151.266 233.087 149.74 233.637 148.941C238.347 142.087 253.792 147.312 265.103 151.036C267.607 152.055 268.685 152.778 269.799 153.297C270.912 153.815 272.028 154.107 271.715 153.777" stroke="#2C558D" stroke-width="2" stroke-linecap="round"/>
<path d="M286.776 148.213C286.77 141.466 286.157 125.732 283.238 117.351C281.83 113.307 279.354 106.806 278.766 103.802C278.178 100.798 279.472 101.518 281.336 103.153C297.236 117.104 319.579 132.937 323.29 135.849C319.006 127.86 309.545 115.496 308.809 101.33C309.186 98.4712 310.218 97.9377 311.514 96.3543" stroke="#2C558D" stroke-width="2" stroke-linecap="round"/>
<path d="M352.776 97.7561C350.8 98.2433 342.26 102.635 336.989 107.445C336.044 108.306 335.899 109.63 335.745 110.833C334.482 120.639 349.494 132.93 353.526 135.692C354.463 136.334 355.638 136.514 356.812 136.481C357.986 136.448 359.217 136.029 360.283 135.02C366.402 129.225 368.717 117.576 370.635 111.67C372.527 105.842 365.432 96.2658 359.63 91.7134C356.613 89.3468 352.478 91.8629 350.766 93.5163C350.18 94.6233 350.168 96.2742 350.362 97.8077C350.556 99.3413 350.955 100.707 351.742 103.223" stroke="#2C558D" stroke-width="2" stroke-linecap="round"/>
<path d="M399.116 90.2256C399.029 90.2256 398.941 104.965 401.895 127.317C404.893 134.929 410.933 134.967 414.678 134.8C418.423 134.633 419.691 134.26 420.616 132.745" stroke="#2C558D" stroke-width="2" stroke-linecap="round"/>
<path d="M467.192 106.334C461.459 106.347 449.466 107.217 447.961 109.12C444.749 113.182 443.413 122.155 440.864 135.353C439.267 143.62 441.257 149.204 443.241 150.601C447.762 153.785 453.684 149.874 462.213 145.95C470.518 142.129 473.929 134.385 474.012 132.109C472.25 127.856 470.139 124.446 468.691 119.711C467.912 116.554 467.042 111.868 463.828 104.735" stroke="#2C558D" stroke-width="2" stroke-linecap="round"/>
<path d="M534.086 146.571C532.526 146.183 525.183 142.465 512.01 136.605C506.08 133.967 500.496 136.342 495.989 138.897C491.473 141.457 495.473 149.565 497.633 158.567C499.879 167.923 498.801 175.796 499.892 178.111C502.144 182.893 510.085 168.388 513.822 164.899C513.862 164.116 512.83 163.065 511.405 162.19C509.981 161.316 508.196 160.649 505.791 159.319" stroke="#2C558D" stroke-width="2" stroke-linecap="round"/>
<path d="M525.539 187.557C526.308 185.296 530.802 177.619 536.498 172.252C542.207 169.011 548.327 166.197 551.829 164.061C553.317 163.116 554.219 162.454 556.897 159.779" stroke="#2C558D" stroke-width="2" stroke-linecap="round"/>
<path d="M545.739 219.992C545.646 219.992 546.841 219.823 554.177 216.692C571.182 207.983 584.428 201.204 588.123 199.605C589.813 198.862 591.127 198.261 592.731 197.282" stroke="#2C558D" stroke-width="2" stroke-linecap="round"/>
<path d="M549.695 220.509C549.602 220.598 549.588 222.045 550.086 224.664C550.329 225.944 551.445 226.873 552.589 227.562C554.918 228.966 560.033 229.035 565.852 228.66C571.772 228.279 572.583 220.723 573.572 216.9C574.608 212.891 577.922 224.765 580.022 226.708C581.021 227.631 582.398 227.776 583.6 227.695C584.802 227.615 585.92 227.138 586.751 226.053C588.095 223.289 588.768 220.187 589.051 213.68C589.189 208.547 589.313 199.695 589.441 190.575" stroke="#2C558D" stroke-width="2" stroke-linecap="round"/>
<path d="M570.048 247.691C585.167 247.766 618.815 248.645 622.721 249.903C628.525 251.774 605.9 255.094 598.133 258.29C587.375 262.716 582.355 271.795 579.054 277.967C578.715 279.121 578.524 280.226 578.426 281.521C578.327 282.816 578.327 284.266 579.273 285.777" stroke="#2C558D" stroke-width="2" stroke-linecap="round"/>
<path d="M598.395 275.448C598.355 272.8 596.836 263.613 594.944 256.981C594.616 255.533 594.384 254.01 594.047 252.662C593.709 251.314 593.273 250.188 591.053 247.621" stroke="#2C558D" stroke-width="2" stroke-linecap="round"/>
<path d="M586.037 298.324C599.481 298.27 628.319 297.786 630.811 297.033C631.773 296.742 627.471 295.91 624.422 296.096C618.037 296.485 602.901 311.768 594.758 321.58C590.237 327.027 593.583 334.698 594.118 338.848C594.313 340.361 596.153 340.151 597.489 339.719C600.058 338.506 609.563 334.737 623.434 329.945C629.072 328.119 631.865 327.52 636.214 326.829" stroke="#2C558D" stroke-width="2" stroke-linecap="round"/>
<path d="M594.435 352.246C602.551 352.323 627.816 354.684 634.816 358.225C639.182 360.434 634.155 380.045 630.9 389.849C627.44 400.272 603.144 390.419 597.079 385.186C594.671 383.108 593.868 380.632 593.844 378.06C595.906 372.293 597.179 368.796 597.452 366.099C597.546 364.677 597.546 363.146 596.288 359.12" stroke="#2C558D" stroke-width="2" stroke-linecap="round"/>
<path d="M634.147 424.182C632.304 424.182 622.639 421.968 605.293 414.361C595.896 410.239 587.441 413.017 582.548 414.831C580.227 415.691 578.498 417.576 576.97 419.238C576.201 420.075 576.039 421.362 576.293 422.51C577.4 427.509 582.451 430.561 588.167 444.41C590.619 448.077 595.774 449.992 604.153 451.772C608.439 452.401 612.792 452.473 617.215 452.837" stroke="#2C558D" stroke-width="2" stroke-linecap="round"/>
<path d="M570.924 452.583C571.005 452.499 580.845 462.316 595.257 477.626C600.151 482.825 599.001 483.814 596.399 483.809C580.019 483.774 560.694 484.367 551.647 485.392C557.004 486.373 576.455 497.212 588.501 507.109C589.744 508.641 590.521 509.822 591.207 511.35" stroke="#2C558D" stroke-width="2" stroke-linecap="round"/>
<path d="M537.359 551.412C542.774 547.588 559.832 537.296 563.944 533.056C567.393 529.499 555.77 516.889 551.661 508.845C547.048 499.813 526.814 507.596 520.913 510.241C519.473 510.886 518.022 511.254 516.822 511.873C515.622 512.493 514.694 513.298 515.077 515.044C517.071 524.142 521.495 531.302 523.043 539.348C524.421 538.788 526.611 536.69 529.764 534.858C531.605 533.945 533.934 533.063 537.678 531.392" stroke="#2C558D" stroke-width="2" stroke-linecap="round"/>
<path d="M497.814 561.461C500.079 561.287 506.169 561.707 507.805 562.802C507.952 563.378 506.708 563.998 505.451 564.278C504.193 564.558 502.958 564.478 501.686 564.396" stroke="#2C558D" stroke-width="2" stroke-linecap="round"/>
<path d="M237.769 558.583C237.769 558.625 237.769 558.667 237.799 559.287C237.83 559.907 237.89 561.104 240.34 561.807" stroke="#2C558D" stroke-width="2" stroke-linecap="round"/>
<path d="M291.998 608.186C291.998 608.016 291.998 606.427 292.343 603.07C293.38 599.047 297.787 589.944 304.408 578.367C307.333 573.66 309.377 571.324 312.417 567.954" stroke="#2C558D" stroke-width="2" stroke-linecap="round"/>
<path d="M355.002 597.927C353.745 597.111 349.349 590.477 347.004 582.931C346.051 579.861 346.536 576.951 347.457 574.968C348.346 573.055 351.75 573.657 354.256 574.027C356.851 574.411 358.677 577.347 360.051 580.308C363.391 587.505 360.116 598.763 353.521 612.342C350.402 618.765 346.118 621.582 343.768 623.182C338.565 625.218 331.236 625.956 324.918 624.45C323.738 623.756 322.999 622.819 322.168 620.685" stroke="#2C558D" stroke-width="2" stroke-linecap="round"/>
<path d="M377.773 587.001C377.862 587.001 381.956 587.001 388.567 587.655C391.199 587.916 392.086 589.618 392.798 591.051C396.335 598.161 395.397 615.232 394.435 624.522C394.273 626.094 393.139 627.655 393.278 627.951C394.508 627.155 396.846 625.394 401.052 623.752C404.046 622.744 408.783 621.382 415.741 619.817" stroke="#2C558D" stroke-width="2" stroke-linecap="round"/>
<path d="M432.782 603.595C432.956 595.156 434.039 575.173 436.663 570.385C439.164 565.822 445.584 567.355 447.954 567.997C455.226 569.964 456.167 604.749 455.712 620.355C455.671 621.769 454.124 622.94 452.91 623.817C450.535 625.531 446.937 625.512 443.442 624.838C440.508 622.817 436.629 612.194 432.588 596.547C431.075 590.135 430.651 586.824 431.428 582.41" stroke="#2C558D" stroke-width="2" stroke-linecap="round"/>
<path d="M295.693 290.748C296.739 290.748 299.686 290.178 302.148 288.396C304.935 286.379 307.113 281.799 309.796 278.454C312.51 275.071 319.831 271.539 331.948 268.265C336.786 266.958 339.245 265.818 341.776 266.537C350.208 268.933 364.911 267.634 367.751 268.977C370.896 270.464 377.878 270.704 384.028 270.406C389.843 270.123 395.147 269.146 403.164 267.855C412.722 266.317 416.749 267.859 420.814 268.473C422.656 268.751 424.2 270.151 426.232 271.873C436.554 280.618 449.883 289.083 450.314 290.744C450.922 293.085 450.18 295.237 449.631 296.515C448.481 299.188 445.681 300.608 443.429 302.24C441.121 303.849 439.075 305.963 437.619 307.457C436.907 307.887 436.249 307.652 435.571 307.41" stroke="white" stroke-width="2" stroke-linecap="round"/>
<path d="M295.749 292.59C296.594 293.284 303.967 301.518 309.6 307.05C310.805 307.828 312.476 308.746 313.649 309.371C314.822 309.996 315.445 310.3 315.394 310.086" stroke="white" stroke-width="2" stroke-linecap="round"/>
<path d="M341.626 296.58C338.803 296.595 331.433 297.214 327.816 299.284C322.614 302.26 320.448 305.191 313.54 309.881C304.786 315.826 297.78 325.22 293.857 331.918C288.939 340.315 285.728 347.117 285.22 349.802C284.568 353.251 286.099 358.75 288.359 365.181C290.332 370.798 294.209 377.22 298.406 386.567C303.425 397.743 304.394 405.384 305.132 406.492C308.086 410.93 318.505 407.298 319.909 408.555C320.751 409.31 321.629 410.537 321.719 410.939C322.326 413.633 316.796 404.815 315.714 397.091C315.099 392.708 315.647 384.915 317.01 374.864C318.373 364.813 321.066 352.697 322.479 346.106C323.891 339.516 323.942 338.82 323.711 337.913" stroke="white" stroke-width="2" stroke-linecap="round"/>
<path d="M322.653 357.677C322.703 357.677 318.414 357.677 311.934 358C309.746 358.109 309.88 358.969 310.313 359.748C310.746 360.527 311.496 361.419 311.931 362.189C312.366 362.96 312.464 363.581 311.794 363.932C307.7 366.073 302.143 366.254 298.838 368.146C298.324 368.44 298.718 369.304 299.117 369.71C301.69 372.341 308.362 373.067 316.612 374.216C318.467 374.474 319.538 374.401 317.468 374.408C303.742 374.454 300.984 375.356 299.74 376.052C299.116 376.4 298.746 377.1 298.838 377.629C299.043 378.808 306.063 379.029 313.063 379.466C321.495 379.992 301.438 383.784 300.292 384.601C299.742 384.995 299.485 385.628 301.738 386.545C303.991 387.462 308.821 388.717 310.009 389.463C314.441 392.245 298.829 393.032 296.291 395.477C294.112 397.576 304.793 396.877 311.158 396.983C312.398 396.887 313.036 396.693 313.647 396.447C314.258 396.2 314.822 395.907 315.239 395.359" stroke="white" stroke-width="2" stroke-linecap="round"/>
<path d="M323.789 366.323C323.789 366.373 325.021 365.767 327.214 364.953C328.131 364.613 328.828 365.061 329.458 366.188C334.015 374.345 330.986 386.605 327.531 395.467C326.104 398.269 324.314 401.75 322.272 405.859C321.437 407.454 321.009 408.056 318.881 408.342" stroke="white" stroke-width="2" stroke-linecap="round"/>
<path d="M332.697 380.782C332.726 378.589 333.161 372.467 335.488 365.51C337.398 359.802 341.457 356.883 347.221 353.078C351.128 351.395 355.302 350.334 359.312 349.835C361.832 349.631 365.337 349.526 369.651 349.253" stroke="white" stroke-width="2" stroke-linecap="round"/>
<path d="M324.086 402.817C324.844 403.076 329.532 403.449 332.919 403.519C335.675 403.576 335.313 397.486 342.816 381.808C344.831 377.598 347.375 375.411 352.159 371.502C366.289 361.807 372.554 359.288 377.358 358.114C379.599 357.644 381.437 357.429 382.827 357.349" stroke="white" stroke-width="2" stroke-linecap="round"/>
<path d="M405.043 294.809C408.41 294.823 416.535 295.127 420.184 296.936C424.816 299.233 427.932 302.507 432.501 307.668C436.365 312.032 442.963 320.292 446.907 325.556C452.227 332.656 453.172 336.786 453.702 341.522C454.529 348.913 454.071 354.123 452.66 359.175C449.135 371.802 445.298 381.218 444.117 383.629C442.121 387.701 440.564 390.04 436.139 392.871C429.17 397.33 420.688 397.82 414.1 397.824C410.445 397.826 405.377 391.069 401.019 384.662C398.775 381.363 399.109 378.977 399.408 377.808C399.99 375.53 404.189 377.148 407.493 377.138C408.308 377.136 409.006 376.998 409.608 377.188C410.209 377.378 410.69 377.837 410.938 378.542C411.489 380.11 410.889 381.722 410.164 382.765C409.431 383.82 407.882 384.052 406.355 384.178C404.75 384.311 403.204 383.903 402.092 382.954C400.831 381.877 401.447 378.795 401.786 375.993C402.248 372.178 409.692 370.782 416.199 369.631C417.439 369.412 418.32 369.618 419.042 369.918C422.242 371.246 423.126 376.078 423.696 379.879C423.835 380.802 423.759 381.583 423.498 382.234C423.236 382.884 422.713 383.389 421.975 383.711C420.384 384.404 418.685 384.272 417.366 384.073C415.92 383.855 414.818 382.548 413.864 381.253C412.829 379.848 412.531 378.197 412.666 376.865C412.733 376.208 413.318 375.699 413.957 375.336C415.303 374.573 416.999 374.62 418.442 374.752C422.82 375.152 429.15 384.582 431.979 388.084C432.349 388.542 431.216 389.192 430.331 389.152C428.263 389.059 426.806 387.404 425.859 386.347C422.838 382.979 422.415 378.002 422.558 376.803C422.627 376.227 423.274 375.864 423.857 375.704C426.391 375.009 434.648 378.904 440.552 381.103C441.93 381.616 442.986 382.838 443.855 383.884C444.226 384.331 443.789 384.996 443.119 385.272C439.263 385.05 436.556 383.665 435.373 382.454C434.799 381.759 434.278 380.902 433.47 378.97" stroke="white" stroke-width="2" stroke-linecap="round"/>
<path d="M405.709 374.155C405.709 374.107 405.709 372.903 406.126 371.172C406.437 369.88 409.397 371.161 416.186 371.672C431.836 372.849 442.931 371.679 443.778 371.662C443.943 371.898 443.569 372.628 443.281 373.438C442.992 374.248 442.802 375.116 441.986 377.295" stroke="white" stroke-width="2" stroke-linecap="round"/>
<path d="M423.255 334.191C423.143 334.191 422.947 340.048 422.589 349.956C422.371 354.008 422.078 356.077 421.927 358.593C421.776 361.109 421.776 364.009 420.864 366.889" stroke="white" stroke-width="2" stroke-linecap="round"/>
<path d="M331.773 405.499C331.791 403.168 332.136 396.895 333.145 393.52C333.66 391.799 334.885 390.295 338.776 385.984C347.928 375.845 356.584 368.056 361.546 364.716C373.36 356.764 381.524 355.903 385.507 355.949C391.574 358.503 398.97 361.745 400.295 362.726C400.863 363.249 401.219 363.825 400.745 364.971" stroke="white" stroke-width="2" stroke-linecap="round"/>
<path d="M417.916 362.86C416.261 359.545 409.058 347.402 405.147 343.15C401.72 339.423 392.848 341.856 389.766 339.355C387.028 337.134 387.954 329.998 387.829 319.425C387.76 313.622 392.13 307.557 400.658 297.339C402.782 294.793 404.511 285.728 406.193 270.919C406.742 261.646 406.226 256.562 405.503 254.149C405.277 253.537 405.337 254.169 405.398 254.82" stroke="white" stroke-width="2" stroke-linecap="round"/>
<path d="M405.398 254.82C405.368 252.863 400.593 241.316 396.602 235.493C394.203 231.99 388.935 230.342 384.81 228.47C379.645 226.126 376.478 229.859 373.781 230.746C368.649 232.433 358.644 231.591 353.294 233.399C352.189 233.772 351.243 234.405 350.576 234.985C347.737 237.458 346.11 252.795 342.985 262.22C340.918 268.455 339.927 277.569 340.217 285.72C340.364 289.85 341.306 292.579 344.994 298.459C352.297 310.103 359.267 316.846 359.577 319.419C359.618 324.235 359.308 328.645 358.758 331.102C358.469 332.202 358.159 333.005 357.393 334.151" stroke="white" stroke-width="2" stroke-linecap="round"/>
<path d="M340.911 267.984C343.492 267.984 357.179 269.675 368.332 270.288C369.665 270.361 369.48 269.349 369.209 268.71C368.654 267.398 368.025 266.179 368.026 264.992C368.027 262.383 373.562 255.223 376.085 246.223C378.055 239.195 376.294 233.801 376.046 233.183C373.156 225.968 375.38 256.446 375.652 263.703C375.831 268.478 385.465 267.63 391.024 268.52C399.592 270.57 409.066 272.033 415.964 271.974C419.013 271.846 421.147 271.518 423.169 271.168" stroke="white" stroke-width="2" stroke-linecap="round"/>
<path d="M394.588 266.233C394.562 266.258 394.536 266.283 394.495 264.244C394.454 262.206 394.398 258.104 392.685 252.814C390.972 247.524 387.603 241.172 384.138 235.567" stroke="white" stroke-width="2" stroke-linecap="round"/>
<path d="M354.518 263.82C354.327 264.009 354.134 263.213 353.989 261.475C356.664 254.461 363.155 244.091 367.043 240.142C367.906 239.222 368.329 238.677 369.431 238.114" stroke="white" stroke-width="2" stroke-linecap="round"/>
<path d="M422.581 270.075C422.682 265.49 423.367 254.218 425.104 249.858C427.113 244.814 437.219 243.883 441.554 244.007C443.106 244.052 443.164 247.598 443.052 250.882C442.921 254.744 436.161 258.892 432.493 262.518C430.609 264.381 440.203 257.419 449.12 253.935C450.792 253.282 451.811 253.29 452.554 253.472C453.297 253.654 453.784 254.158 453.763 254.795C453.53 261.9 439.979 265.844 439.713 266.141C436.74 269.456 448.991 264.313 454.505 264.368C456.446 264.387 456.598 265.184 456.337 265.822C455.728 267.311 453.528 268.476 452.402 269.099C449.195 270.876 458.715 266.726 461.858 266.937C463.12 267.021 463.611 267.761 463.855 268.457C464.82 271.21 461.893 273.572 458.561 277.841C455.548 281.703 450.361 283.921 448.117 285.88C447.528 286.393 446.717 286.678 445.937 286.784C445.157 286.891 444.375 286.736 443.813 286.38C443.251 286.024 442.932 285.47 442.716 284.829C442.5 284.187 442.397 283.474 442.343 282.585" stroke="white" stroke-width="2" stroke-linecap="round"/>
<path d="M429.018 258.437C428.95 257.668 420.253 241.547 414.267 231.077C413.656 230.008 419.438 230.389 424.85 231.309C426.832 231.646 427.128 232.337 427.261 232.994C427.542 234.386 427.038 235.892 426.495 237.155C426.233 237.763 425.695 238.147 425.31 238.049C423.039 237.474 425.092 232.296 425.821 227.779C426.51 223.515 427.955 220.397 428.667 219.147C429.399 217.861 430.744 217.151 432.114 216.635C433.692 216.041 435.555 216.073 437.685 216.564C443.444 217.893 446.283 222.784 449.251 227.097C452.098 231.232 453.252 242.543 452.028 248.147C451.839 249.012 450.07 248.585 449.211 248.443C445.076 247.758 442.712 239.645 438.874 238.282C433.18 238.449 428.89 240.165 425.605 241.805C424.325 242.494 423.833 242.894 423.757 244.984" stroke="white" stroke-width="2" stroke-linecap="round"/>
<path d="M302.014 282.803C301.762 280.083 299.634 268.623 296.276 259.238C295.142 256.069 295.016 252.702 295.294 249.693C295.403 248.51 296.263 248.173 297.006 248C299.965 247.31 309.212 249.049 320.426 248.148C323.494 247.901 327.529 247.841 329.706 248.12C331.882 248.399 332.079 249.042 332.181 249.996C332.283 252.196 332.06 254.584 331.707 258.034C331.576 260.379 331.543 263.933 331.67 268.373" stroke="white" stroke-width="2" stroke-linecap="round"/>
<path d="M300.716 251.212C300.716 252.139 300.428 254.514 299.701 255.827C299.367 256.43 298.679 256.615 298.407 256.349C298.136 256.083 298.193 255.287 298.593 254.578C299.445 253.067 301.47 252.358 303.574 251.892C305.914 251.374 307.871 251.804 309.008 252.367C312.025 253.861 311.379 259.379 311.129 262.245C311.033 263.354 310.136 263.602 309.642 263.473C307.281 262.856 308.725 258.519 309.394 256.929C310.733 253.745 315.944 254.768 317.509 255.202C319.098 255.642 318.906 258.178 318.813 259.69C318.768 260.416 318.534 261.039 318.216 261.6C317.899 262.162 317.455 262.64 317.249 262.405C317.043 262.17 317.088 261.209 317.397 260.409C317.706 259.61 318.278 259.002 318.904 258.595C320.095 257.822 321.688 257.828 323.253 258.049C324.682 258.632 325.839 259.662 326.552 261.083C326.801 261.867 326.823 262.78 326.069 264.567" stroke="white" stroke-width="2" stroke-linecap="round"/>
<path d="M294.858 243.14H294.779" stroke="white" stroke-width="2" stroke-linecap="round"/>
<path d="M293.597 235.731V235.807" stroke="white" stroke-width="2" stroke-linecap="round"/>
<path d="M299.097 223.138V223.305" stroke="white" stroke-width="2" stroke-linecap="round"/>
<path d="M329.824 221.843V222.009" stroke="white" stroke-width="2" stroke-linecap="round"/>
<path d="M335.466 232.526H335.542" stroke="white" stroke-width="2" stroke-linecap="round"/>
<path d="M334.717 244.205V244.279" stroke="white" stroke-width="2" stroke-linecap="round"/>
<path d="M298.201 398.835C296.653 398.76 291.256 400.644 287.377 403.314C283.462 406.008 281.821 408.129 280.293 410.375C278.702 412.717 279.894 415.852 282.504 428.262C283.889 434.842 285.744 438.715 286.808 440.401C289.916 445.327 300.019 446.377 310.408 445.284C316.699 444.622 327.378 441.498 334.609 440.192C349.113 437.574 355.25 440.691 360.114 442.082C361.011 442.338 362.09 442.266 362.884 442.037C365.888 441.174 367.08 437.004 368.523 429.099C371.147 414.721 365.157 404.838 363.312 402.192C361.51 399.606 349.882 399.448 341.365 400.606C326.326 402.652 322.44 408.863 321.112 408.755C320.428 408.699 319.814 408.117 319.333 407.247C318.852 406.376 318.547 405.101 318.373 403.917C318.199 402.734 318.166 401.681 318.45 400.402" stroke="white" stroke-width="2" stroke-linecap="round"/>
<path d="M409.755 406.574C412.747 406.533 420.507 405.891 424.758 403.691C435.841 397.953 440.503 392.67 443.626 391.958C448.356 390.879 451.875 393.973 454.521 396.198C456.626 397.968 455.982 401.776 458.22 419.97C460.733 440.395 457.953 444.027 456.034 446.36C453.877 448.982 438.088 445.417 425.988 443.215C421.503 442.399 417.106 441.004 408.699 439.906C399.711 438.732 384.547 443.157 378.489 441.684C376.523 441.206 375.732 439.185 375.181 436.909C372.418 425.488 374.724 411.326 376.336 407.161C378.014 402.824 381.358 400.068 383.199 398.773C388.991 394.699 398.58 394.967 401.544 395.112C405.201 395.291 406.77 400.994 410.444 402.232C418.402 403.032 424.309 402.755 427.889 401.261C430.328 400.053 434.031 397.931 438.233 395.073" stroke="white" stroke-width="2" stroke-linecap="round"/>
<path d="M357.868 399.91C358.891 400.459 362.342 402.622 363.732 404.341C365.639 406.702 356.473 406.136 353.664 406.933C352.283 407.325 355.974 404.504 357.238 403.954C358.517 403.397 360.18 403.489 361.948 403.778C363.84 404.088 364.96 405.753 365.53 407.117C366.047 408.356 365.554 409.705 364.876 410.812C363.544 412.987 360.322 413.124 357.111 412.976C356.366 412.941 356.116 411.866 356.016 411.177C355.915 410.488 356.065 409.883 356.49 409.493C356.914 409.102 357.609 408.944 358.159 409.244C361.265 410.943 359.476 416.636 358.14 419.836C357.619 421.084 356.294 422.57 355.666 423.034C355.037 423.498 354.952 422.795 355.209 422.307C355.738 421.303 357.38 421.276 358.75 421.397C359.445 421.458 360.082 421.877 360.596 422.461C361.691 423.709 361.88 425.833 361.799 428.006C361.654 431.867 359.207 434.618 357.925 439.045C357.506 439.982 357.095 440.579 356.546 441.198C355.997 441.817 355.323 442.439 353.546 443.744" stroke="white" stroke-width="2" stroke-linecap="round"/>
<path d="M388.397 404.095C388.397 404.142 388.397 405.805 388.885 408.318C389.076 409.302 390.349 409.257 391.204 409.101C392.058 408.945 392.761 408.569 393.233 408.032C393.704 407.495 393.922 406.81 393.631 406.323C392.945 405.178 390.552 405.268 388.333 405.522C384.372 405.976 383.292 409.735 382.259 412.294C381.733 413.597 381.715 415.966 381.888 418.652C382 420.39 383.765 420.798 384.726 421.28C390.212 424.036 384.292 436.4 386.36 439.373C387.194 440.572 388.942 440.342 390.008 440.025C390.477 439.885 390.413 439.072 390.095 438.717C389.777 438.363 389.107 438.309 388.582 438.744C387.333 439.779 387.329 442.009 387.453 443.987C387.825 446.084 388.484 447.801 389.367 448.529C389.848 448.645 390.392 448.243 390.216 446.105" stroke="white" stroke-width="2" stroke-linecap="round"/>
<path d="M353.597 281.89C353.597 281.915 353.597 281.94 354.798 281.965C355.998 281.991 358.4 282.016 361.28 282.294" stroke="white" stroke-width="2" stroke-linecap="round"/>
<path d="M383.667 282.301H393.214" stroke="white" stroke-width="2" stroke-linecap="round"/>
<path d="M281.16 452.659C281.208 452.659 288.25 452.694 302.612 453.471C309.985 453.87 317.422 455.662 329.132 456.724C340.843 457.787 356.574 458.418 365.074 458.905C373.574 459.392 374.367 459.716 375.061 460.108C375.755 460.5 376.326 460.949 376.674 461.522C377.022 462.095 377.129 462.778 376.109 464.686" stroke="white" stroke-width="2" stroke-linecap="round"/>
<path d="M375.747 464.145C377.616 464.05 388.084 462.31 397.139 461.37C399.494 461.126 409.278 460.948 423.707 460.6C431.369 460.415 434.828 458.833 439.747 456.203C449.231 451.131 455.323 446.713 456.488 446.314C457.094 446.193 457.731 446.234 458.216 446.608C458.7 446.981 459.013 447.686 458.566 449.688" stroke="white" stroke-width="2" stroke-linecap="round"/>
<path d="M280.271 455.563C280.369 456.273 281.102 459.012 283.774 461.758C289.45 467.591 294.443 468.161 305.747 468.737C316.207 469.271 336.286 469.609 347.304 470.013C362.901 470.586 367.612 473.48 369.851 475.411C370.588 476.66 371.046 478.122 371.379 479.63C371.554 480.36 371.74 481.019 370.476 481.299" stroke="white" stroke-width="2" stroke-linecap="round"/>
<path d="M370.477 481.299C370.795 481.299 374.804 481.077 383.7 480.211C388.766 479.718 394.887 478.507 402.115 477.849C417.438 476.456 426.921 476.853 428.984 476.99C432.558 477.227 441.591 469.733 453.759 460.316C457.116 456.979 458.073 455.277 458.362 453.832C458.461 452.99 458.461 451.924 458.461 450.827" stroke="white" stroke-width="2" stroke-linecap="round"/>
<path d="M309.655 218.025C309.622 218.025 309.137 217.913 308.621 217.687C308.574 217.573 308.961 217.46 309.341 217.584C309.721 217.708 310.082 218.071 310.858 219.209" stroke="white" stroke-width="2" stroke-linecap="round"/>
<path d="M320.478 217.354C320.443 217.336 320.407 217.318 320.496 217.489C320.586 217.66 320.802 218.021 321.176 218.458C321.55 218.895 322.076 219.397 322.618 219.914" stroke="white" stroke-width="2" stroke-linecap="round"/>
</svg>
